# xmcd
#
# Track frame offsets:
#  150
#  27975
#  52275
#  74700
#  96750
#  115500
#  137025
#  157425
#  177900
#  195750
#
# Disc length: 2946 seconds
#
# Revision: 0
# Processed by: cddbd v1.4PL0 Copyright (c) Steve Scherf et al.
# Submitted via: AltoMP3_Maker 3.0
#
DISCID=900b800a
DTITLE=杜聪 - 韵星宿之排箫
DYEAR=1900
DGENRE=
TTITLE0=如歌的行板
TTITLE1=船歌
TTITLE2=西波涅
TTITLE3=红衣裳
TTITLE4=午夜蓝调
TTITLE5=三套车
TTITLE6=樱桃舞曲
TTITLE7=纺织姑娘
TTITLE8=莫斯科郊外的晚上
TTITLE9=在遥远的地方
EXTD=
EXTT0=
EXTT1=
EXTT2=
EXTT3=
EXTT4=
EXTT5=
EXTT6=
EXTT7=
EXTT8=
EXTT9=
PLAYORDER=
